<?xml version="1.0" encoding="utf-8"?>
<!-- Generator: Adobe Illustrator 27.5.0, SVG Export Plug-In . SVG Version: 6.00 Build 0)  -->
<svg version="1.2" baseProfile="tiny" id="g-mobile_scroller-Artboard_1-_svg_inline-img" xmlns="http://www.w3.org/2000/svg" xmlns:xlink="http://www.w3.org/1999/xlink"
	 x="0px" y="0px" viewBox="0 0 350 400" overflow="visible" xml:space="preserve">
<g>
	<g id="others_x5F_squares_00000181803594085119394270000013324193260493629867_">
		<path fill="#EFC267" d="M314.502,235.394h34.94v32.921h-34.94V235.394z"/>
		<path fill="#F1F1F1" d="M34.982,301.237h34.94v32.921h-34.94V301.237z"/>
		<rect x="314.502" y="334.158" fill="#F1F1F1" width="34.94" height="32.921"/>
		<path fill="#F1F1F1" d="M104.862,136.631h34.94v32.921h-34.94V136.631z"/>
		<path fill="#C0D7ED" d="M104.862,169.552h34.94v32.921h-34.94V169.552z"/>
		<path fill="#B5D6E7" d="M69.922,367.079h34.94V400h-34.94V367.079z"/>
		<path fill="#B5D6E7" d="M209.682,136.631h34.94v32.921h-34.94V136.631z"/>
		<path fill="#C0D7ED" d="M0.042,268.315h34.94v32.921H0.042V268.315z"/>
		<path fill="#C0D7ED" d="M34.982,235.394h34.94v32.921h-34.94V235.394z"/>
		<path fill="#C0D7ED" d="M104.862,202.473h34.94v32.921h-34.94V202.473z"/>
		<path fill="#C0D7ED" d="M314.502,301.237h34.94v32.921h-34.94V301.237z"/>
		<path fill="#89BEE9" d="M104.862,235.394h34.94v32.921h-34.94V235.394z"/>
		<path fill="#89BEE9" d="M0.042,103.71h34.94v32.921H0.042V103.71z"/>
		<path fill="#89BEE9" d="M104.862,334.158h34.94v32.921h-34.94V334.158z"/>
		<path fill="#89BEE9" d="M209.682,235.394h34.94v32.921h-34.94V235.394z"/>
		<path fill="#89BEE9" d="M314.502,136.631h34.94v32.921h-34.94V136.631z"/>
		<path fill="#69B2E6" d="M69.922,235.394h34.94v32.921h-34.94V235.394z"/>
		<path fill="#69B2E6" d="M244.622,268.315h34.94v32.921h-34.94V268.315z"/>
		<path fill="#69B2E6" d="M244.622,169.552h34.94v32.921h-34.94V169.552z"/>
		<path fill="#69B2E6" d="M244.622,334.158h34.94v32.921h-34.94V334.158z"/>
		<path fill="#69B2E6" d="M279.562,136.631h34.94v32.921h-34.94V136.631z"/>
		<path fill="#69B2E6" d="M314.502,103.71h34.94v32.921h-34.94V103.71z"/>
		<path fill="#A5CBEB" d="M0.042,202.473h34.94v32.921H0.042V202.473z"/>
		<path fill="#A5CBEB" d="M34.982,268.315h34.94v32.921h-34.94V268.315z"/>
		<path fill="#A5CBEB" d="M174.742,202.473h34.94v32.921h-34.94V202.473z"/>
		<path fill="#69B2E6" d="M174.742,235.394h34.94v32.921h-34.94V235.394z"/>
		<path fill="#A5CBEB" d="M69.922,103.71h34.94v32.921h-34.94V103.71z"/>
		<path fill="#69B2E6" d="M69.922,136.631h34.94v32.921h-34.94V136.631z"/>
		<path fill="#69B2E6" d="M279.562,268.315h34.94v32.921h-34.94V268.315z"/>
		<path fill="#A5CBEB" d="M209.682,169.552h34.94v32.921h-34.94V169.552z"/>
		<path fill="#69B2E6" d="M244.622,202.473h34.94v32.921h-34.94V202.473z"/>
		<path fill="#A5CBEB" d="M314.502,268.315h34.94v32.921h-34.94V268.315z"/>
		<path fill="#89BEE9" d="M139.802,202.473h34.94v32.921h-34.94V202.473z"/>
		<path fill="#A5CBEB" d="M0.042,136.631h34.94v32.921H0.042V136.631z"/>
		<path fill="#A5CBEB" d="M174.742,367.079h34.94V400h-34.94V367.079z"/>
		<path fill="#89BEE9" d="M34.982,136.631h34.94v32.921h-34.94V136.631z"/>
		<path fill="#A5CBEB" d="M69.922,334.158h34.94v32.921h-34.94V334.158z"/>
		<path fill="#A5CBEB" d="M209.682,301.237h34.94v32.921h-34.94V301.237z"/>
		<path fill="#A5CBEB" d="M279.562,235.394h34.94v32.921h-34.94V235.394z"/>
		<path fill="#A5CBEB" d="M139.802,136.631h34.94v32.921h-34.94V136.631z"/>
		<path fill="#89BEE9" d="M314.502,202.473h34.94v32.921h-34.94V202.473z"/>
		<path fill="#69B2E6" d="M0.042,301.237h34.94v32.921H0.042V301.237z"/>
		<path fill="#69B2E6" d="M104.862,301.237h34.94v32.921h-34.94V301.237z"/>
		<path fill="#69B2E6" d="M34.982,367.079h34.94V400h-34.94V367.079z"/>
		<path fill="#69B2E6" d="M34.982,169.552h34.94v32.921h-34.94V169.552z"/>
		<path fill="#69B2E6" d="M139.802,301.237h34.94v32.921h-34.94V301.237z"/>
		<path fill="#69B2E6" d="M104.862,103.71h34.94v32.921h-34.94V103.71z"/>
		<path fill="#69B2E6" d="M174.742,301.237h34.94v32.921h-34.94V301.237z"/>
		<path fill="#69B2E6" d="M209.682,103.71h34.94v32.921h-34.94V103.71z"/>
		<path fill="#69B2E6" d="M244.622,301.237h34.94v32.921h-34.94V301.237z"/>
		<path fill="#69B2E6" d="M279.562,367.079h34.94V400h-34.94V367.079z"/>
		<path fill="#69B2E6" d="M244.622,235.394h34.94v32.921h-34.94V235.394z"/>
		<path fill="#69B2E6" d="M279.562,301.237h34.94v32.921h-34.94V301.237z"/>
		<path fill="#69B2E6" d="M279.562,202.473h34.94v32.921h-34.94V202.473z"/>
		<path fill="#69B2E6" d="M314.502,367.079h34.94V400h-34.94V367.079z"/>
		<path fill="#69B2E6" d="M279.562,169.552h34.94v32.921h-34.94V169.552z"/>
		<path fill="#69B2E6" d="M34.982,202.473h34.94v32.921h-34.94V202.473z"/>
		<path fill="#69B2E6" d="M69.922,301.237h34.94v32.921h-34.94V301.237z"/>
		<path fill="#69B2E6" d="M69.922,169.552h34.94v32.921h-34.94V169.552z"/>
		<path fill="#69B2E6" d="M139.802,367.079h34.94V400h-34.94V367.079z"/>
		<path fill="#69B2E6" d="M34.982,103.71h34.94v32.921h-34.94V103.71z"/>
		<path fill="#69B2E6" d="M209.682,367.079h34.94V400h-34.94V367.079z"/>
		<path fill="#69B2E6" d="M244.622,103.71h34.94v32.921h-34.94V103.71z"/>
		<path fill="#69B2E6" d="M279.562,334.158h34.94v32.921h-34.94V334.158z"/>
		<path fill="#69B2E6" d="M279.562,103.71h34.94v32.921h-34.94V103.71z"/>
		<path fill="#69B2E6" d="M314.502,169.552h34.94v32.921h-34.94V169.552z"/>
		<path fill="#3CA6E4" d="M0.042,235.394h34.94v32.921H0.042V235.394z"/>
		<path fill="#3CA6E4" d="M69.922,202.473h34.94v32.921h-34.94V202.473z"/>
		<path fill="#3CA6E4" d="M69.922,268.315h34.94v32.921h-34.94V268.315z"/>
		<path fill="#3CA6E4" d="M104.862,268.315h34.94v32.921h-34.94V268.315z"/>
		<path fill="#3CA6E4" d="M139.802,268.315h34.94v32.921h-34.94V268.315z"/>
		<path fill="#3CA6E4" d="M174.742,268.315h34.94v32.921h-34.94V268.315z"/>
		<path fill="#3CA6E4" d="M0.042,169.552h34.94v32.921H0.042V169.552z"/>
		<path fill="#3CA6E4" d="M209.682,268.315h34.94v32.921h-34.94V268.315z"/>
		<path fill="#3CA6E4" d="M34.982,334.158h34.94v32.921h-34.94V334.158z"/>
		<path fill="#3CA6E4" d="M104.862,367.079h34.94V400h-34.94V367.079z"/>
		<path fill="#3CA6E4" d="M139.802,334.158h34.94v32.921h-34.94V334.158z"/>
		<path fill="#3CA6E4" d="M139.802,103.71h34.94v32.921h-34.94V103.71z"/>
		<path fill="#3CA6E4" d="M174.742,103.71h34.94v32.921h-34.94V103.71z"/>
		<path fill="#3CA6E4" d="M139.802,169.552h34.94v32.921h-34.94V169.552z"/>
		<path fill="#3CA6E4" d="M244.622,367.079h34.94V400h-34.94V367.079z"/>
		<path fill="#3CA6E4" d="M174.742,334.158h34.94v32.921h-34.94V334.158z"/>
		<path fill="#3CA6E4" d="M174.742,169.552h34.94v32.921h-34.94V169.552z"/>
		<path fill="#3CA6E4" d="M209.682,334.158h34.94v32.921h-34.94V334.158z"/>
		<path fill="#3CA6E4" d="M0.042,334.158h34.94v32.921H0.042V334.158z"/>
		<path fill="#3CA6E4" d="M0.042,367.079h34.94V400H0.042V367.079z"/>
	</g>
	<path id="government_x5F_one_00000060004034281942067290000012950429307782984076_" fill="#D6E7EE" d="M139.802,235.394h34.94
		v32.921h-34.94V235.394z"/>
	<path id="government_x5F_two_00000083810544249456284340000002354012525913910974_" fill="#F1F1F1" d="M209.682,202.473h34.94
		v32.921h-34.94V202.473z"/>
	
		<rect id="strong_x5F_square_00000158718828325596700100000012889360424494343604_" x="174.742" y="136.631" fill="#F1CA7E" width="34.94" height="32.921"/>
	
		<rect id="republic_x5F_square_00000078749496692744003310000005592073099974974911_" x="244.622" y="136.631" fill="#A2CDE2" width="34.94" height="32.921"/>
	<g id="republic-text_00000085967003127233458490000000371316104996822674_">
		<g>
			<path fill="none" stroke="#FFFFFF" stroke-width="3" stroke-miterlimit="10" d="M166.492,121.339
				c-0.308-0.042-0.578-0.062-0.812-0.062c-0.854,0-1.414,0.289-1.68,0.867v5.531h-2.258v-8.453h2.133l0.062,1.008
				c0.453-0.776,1.081-1.164,1.883-1.164c0.25,0,0.484,0.034,0.703,0.102L166.492,121.339z"/>
			<path fill="none" stroke="#FFFFFF" stroke-width="3" stroke-miterlimit="10" d="M171.469,127.831c-1.24,0-2.249-0.38-3.027-1.141
				c-0.779-0.76-1.168-1.773-1.168-3.039v-0.219c0-0.849,0.164-1.608,0.492-2.277c0.328-0.669,0.793-1.185,1.395-1.547
				c0.602-0.362,1.288-0.543,2.059-0.543c1.156,0,2.066,0.365,2.73,1.094c0.664,0.729,0.996,1.763,0.996,3.102v0.922h-5.383
				c0.073,0.552,0.293,0.995,0.66,1.328c0.367,0.333,0.832,0.5,1.395,0.5c0.87,0,1.549-0.315,2.039-0.945l1.109,1.242
				c-0.339,0.479-0.797,0.853-1.375,1.121S172.172,127.831,171.469,127.831z M171.211,120.886c-0.448,0-0.812,0.152-1.09,0.455
				c-0.279,0.304-0.457,0.738-0.535,1.303h3.141v-0.181c-0.011-0.502-0.146-0.891-0.406-1.165
				C172.06,121.023,171.69,120.886,171.211,120.886z"/>
			<path fill="none" stroke="#FFFFFF" stroke-width="3" stroke-miterlimit="10" d="M183.836,123.526
				c0,1.302-0.296,2.345-0.887,3.129c-0.591,0.784-1.39,1.176-2.395,1.176c-0.854,0-1.544-0.297-2.07-0.891v3.984h-2.258v-11.703
				h2.094l0.078,0.828c0.547-0.656,1.26-0.984,2.141-0.984c1.042,0,1.852,0.386,2.43,1.156c0.578,0.771,0.867,1.833,0.867,3.188
				V123.526z M181.578,123.362c0-0.786-0.14-1.393-0.418-1.82c-0.279-0.427-0.684-0.641-1.215-0.641
				c-0.708,0-1.195,0.271-1.461,0.812v3.461c0.276,0.558,0.768,0.836,1.477,0.836C181.039,126.011,181.578,125.128,181.578,123.362z
				"/>
			<path fill="none" stroke="#FFFFFF" stroke-width="3" stroke-miterlimit="10" d="M190.297,126.815
				c-0.558,0.677-1.328,1.016-2.312,1.016c-0.906,0-1.598-0.26-2.074-0.781c-0.477-0.521-0.72-1.284-0.73-2.289v-5.539h2.258v5.467
				c0,0.881,0.401,1.322,1.203,1.322c0.766,0,1.292-0.266,1.578-0.798v-5.991h2.266v8.453h-2.125L190.297,126.815z"/>
			<path fill="none" stroke="#FFFFFF" stroke-width="3" stroke-miterlimit="10" d="M201.805,123.526c0,1.354-0.289,2.41-0.867,3.168
				s-1.386,1.137-2.422,1.137c-0.917,0-1.648-0.352-2.195-1.055l-0.102,0.898h-2.031v-12h2.258v4.305
				c0.521-0.609,1.206-0.914,2.055-0.914c1.031,0,1.84,0.379,2.426,1.137s0.879,1.824,0.879,3.199V123.526z M199.547,123.362
				c0-0.854-0.136-1.478-0.406-1.871c-0.271-0.393-0.675-0.59-1.211-0.59c-0.719,0-1.214,0.294-1.484,0.883v3.336
				c0.276,0.594,0.776,0.891,1.5,0.891c0.729,0,1.208-0.359,1.438-1.078C199.492,124.589,199.547,124.065,199.547,123.362z"/>
			<path fill="none" stroke="#FFFFFF" stroke-width="3" stroke-miterlimit="10" d="M205.578,127.675h-2.266v-12h2.266V127.675z"/>
			<path fill="none" stroke="#FFFFFF" stroke-width="3" stroke-miterlimit="10" d="M207.422,117.034c0-0.338,0.113-0.617,0.34-0.836
				s0.535-0.328,0.926-0.328c0.385,0,0.692,0.109,0.922,0.328c0.229,0.219,0.344,0.498,0.344,0.836c0,0.344-0.116,0.625-0.348,0.844
				c-0.232,0.219-0.538,0.328-0.918,0.328c-0.38,0-0.687-0.109-0.918-0.328C207.538,117.659,207.422,117.378,207.422,117.034z
				 M209.82,127.675h-2.266v-8.453h2.266V127.675z"/>
			<path fill="none" stroke="#FFFFFF" stroke-width="3" stroke-miterlimit="10" d="M215.195,126.011
				c0.417,0,0.755-0.114,1.016-0.344c0.26-0.229,0.396-0.534,0.406-0.914h2.117c-0.005,0.573-0.162,1.098-0.469,1.574
				c-0.308,0.477-0.728,0.847-1.262,1.109c-0.534,0.263-1.124,0.395-1.77,0.395c-1.208,0-2.162-0.384-2.859-1.152
				c-0.698-0.768-1.047-1.829-1.047-3.184v-0.148c0-1.302,0.346-2.341,1.039-3.117c0.692-0.776,1.643-1.164,2.852-1.164
				c1.057,0,1.905,0.301,2.543,0.902c0.638,0.602,0.962,1.402,0.973,2.402h-2.117c-0.011-0.439-0.146-0.797-0.406-1.072
				c-0.261-0.274-0.604-0.412-1.031-0.412c-0.526,0-0.923,0.192-1.191,0.575c-0.269,0.383-0.402,1.005-0.402,1.866v0.234
				c0,0.871,0.133,1.497,0.398,1.878S214.653,126.011,215.195,126.011z"/>
		</g>
		<g>
			<path d="M166.492,121.339c-0.308-0.042-0.578-0.062-0.812-0.062c-0.854,0-1.414,0.289-1.68,0.867v5.531h-2.258v-8.453h2.133
				l0.062,1.008c0.453-0.776,1.081-1.164,1.883-1.164c0.25,0,0.484,0.034,0.703,0.102L166.492,121.339z"/>
			<path d="M171.469,127.831c-1.24,0-2.249-0.38-3.027-1.141c-0.779-0.76-1.168-1.773-1.168-3.039v-0.219
				c0-0.849,0.164-1.608,0.492-2.277c0.328-0.669,0.793-1.185,1.395-1.547c0.602-0.362,1.288-0.543,2.059-0.543
				c1.156,0,2.066,0.365,2.73,1.094c0.664,0.729,0.996,1.763,0.996,3.102v0.922h-5.383c0.073,0.552,0.293,0.995,0.66,1.328
				c0.367,0.333,0.832,0.5,1.395,0.5c0.87,0,1.549-0.315,2.039-0.945l1.109,1.242c-0.339,0.479-0.797,0.853-1.375,1.121
				S172.172,127.831,171.469,127.831z M171.211,120.886c-0.448,0-0.812,0.152-1.09,0.455c-0.279,0.304-0.457,0.738-0.535,1.303
				h3.141v-0.181c-0.011-0.502-0.146-0.891-0.406-1.165C172.06,121.023,171.69,120.886,171.211,120.886z"/>
			<path d="M183.836,123.526c0,1.302-0.296,2.345-0.887,3.129c-0.591,0.784-1.39,1.176-2.395,1.176c-0.854,0-1.544-0.297-2.07-0.891
				v3.984h-2.258v-11.703h2.094l0.078,0.828c0.547-0.656,1.26-0.984,2.141-0.984c1.042,0,1.852,0.386,2.43,1.156
				c0.578,0.771,0.867,1.833,0.867,3.188V123.526z M181.578,123.362c0-0.786-0.14-1.393-0.418-1.82
				c-0.279-0.427-0.684-0.641-1.215-0.641c-0.708,0-1.195,0.271-1.461,0.812v3.461c0.276,0.558,0.768,0.836,1.477,0.836
				C181.039,126.011,181.578,125.128,181.578,123.362z"/>
			<path d="M190.297,126.815c-0.558,0.677-1.328,1.016-2.312,1.016c-0.906,0-1.598-0.26-2.074-0.781
				c-0.477-0.521-0.72-1.284-0.73-2.289v-5.539h2.258v5.467c0,0.881,0.401,1.322,1.203,1.322c0.766,0,1.292-0.266,1.578-0.798
				v-5.991h2.266v8.453h-2.125L190.297,126.815z"/>
			<path d="M201.805,123.526c0,1.354-0.289,2.41-0.867,3.168s-1.386,1.137-2.422,1.137c-0.917,0-1.648-0.352-2.195-1.055
				l-0.102,0.898h-2.031v-12h2.258v4.305c0.521-0.609,1.206-0.914,2.055-0.914c1.031,0,1.84,0.379,2.426,1.137
				s0.879,1.824,0.879,3.199V123.526z M199.547,123.362c0-0.854-0.136-1.478-0.406-1.871c-0.271-0.393-0.675-0.59-1.211-0.59
				c-0.719,0-1.214,0.294-1.484,0.883v3.336c0.276,0.594,0.776,0.891,1.5,0.891c0.729,0,1.208-0.359,1.438-1.078
				C199.492,124.589,199.547,124.065,199.547,123.362z"/>
			<path d="M205.578,127.675h-2.266v-12h2.266V127.675z"/>
			<path d="M207.422,117.034c0-0.338,0.113-0.617,0.34-0.836s0.535-0.328,0.926-0.328c0.385,0,0.692,0.109,0.922,0.328
				c0.229,0.219,0.344,0.498,0.344,0.836c0,0.344-0.116,0.625-0.348,0.844c-0.232,0.219-0.538,0.328-0.918,0.328
				c-0.38,0-0.687-0.109-0.918-0.328C207.538,117.659,207.422,117.378,207.422,117.034z M209.82,127.675h-2.266v-8.453h2.266
				V127.675z"/>
			<path d="M215.195,126.011c0.417,0,0.755-0.114,1.016-0.344c0.26-0.229,0.396-0.534,0.406-0.914h2.117
				c-0.005,0.573-0.162,1.098-0.469,1.574c-0.308,0.477-0.728,0.847-1.262,1.109c-0.534,0.263-1.124,0.395-1.77,0.395
				c-1.208,0-2.162-0.384-2.859-1.152c-0.698-0.768-1.047-1.829-1.047-3.184v-0.148c0-1.302,0.346-2.341,1.039-3.117
				c0.692-0.776,1.643-1.164,2.852-1.164c1.057,0,1.905,0.301,2.543,0.902c0.638,0.602,0.962,1.402,0.973,2.402h-2.117
				c-0.011-0.439-0.146-0.797-0.406-1.072c-0.261-0.274-0.604-0.412-1.031-0.412c-0.526,0-0.923,0.192-1.191,0.575
				c-0.269,0.383-0.402,1.005-0.402,1.866v0.234c0,0.871,0.133,1.497,0.398,1.878S214.653,126.011,215.195,126.011z"/>
		</g>
	</g>
	<g id="strong-text_00000148654498665040405870000001063917106267122314_">
		<g>
			<path fill="none" stroke="#FFFFFF" stroke-width="3" stroke-miterlimit="10" d="M249.596,124.293c0-0.276-0.137-0.493-0.41-0.652
				s-0.712-0.301-1.316-0.426c-2.011-0.422-3.016-1.276-3.016-2.562c0-0.75,0.311-1.376,0.934-1.879
				c0.622-0.503,1.436-0.754,2.441-0.754c1.073,0,1.931,0.253,2.574,0.758c0.643,0.505,0.965,1.161,0.965,1.969h-2.258
				c0-0.323-0.104-0.59-0.312-0.801c-0.208-0.211-0.534-0.316-0.977-0.316c-0.38,0-0.675,0.086-0.883,0.258
				c-0.208,0.172-0.312,0.391-0.312,0.656c0,0.25,0.118,0.452,0.355,0.605c0.237,0.153,0.637,0.286,1.199,0.398
				s1.036,0.238,1.422,0.379c1.192,0.438,1.789,1.195,1.789,2.273c0,0.771-0.331,1.395-0.992,1.871
				c-0.662,0.477-1.516,0.715-2.562,0.715c-0.708,0-1.337-0.126-1.887-0.379c-0.55-0.253-0.98-0.599-1.293-1.039
				s-0.469-0.915-0.469-1.426h2.141c0.021,0.401,0.169,0.708,0.445,0.922c0.276,0.214,0.646,0.32,1.109,0.32
				c0.432,0,0.759-0.082,0.98-0.246C249.485,124.773,249.596,124.559,249.596,124.293z"/>
			<path fill="none" stroke="#FFFFFF" stroke-width="3" stroke-miterlimit="10" d="M255.947,116.098v2.078h1.445v1.656h-1.445v4.219
				c0,0.312,0.06,0.536,0.18,0.672c0.12,0.136,0.349,0.203,0.688,0.203c0.25,0,0.471-0.019,0.664-0.055v1.711
				c-0.443,0.136-0.898,0.203-1.367,0.203c-1.583,0-2.391-0.8-2.422-2.398v-4.555h-1.234v-1.656h1.234v-2.078H255.947z"/>
			<path fill="none" stroke="#FFFFFF" stroke-width="3" stroke-miterlimit="10" d="M263.4,120.293
				c-0.308-0.042-0.578-0.062-0.812-0.062c-0.854,0-1.414,0.289-1.68,0.867v5.531h-2.258v-8.453h2.133l0.062,1.008
				c0.453-0.776,1.081-1.164,1.883-1.164c0.25,0,0.484,0.034,0.703,0.102L263.4,120.293z"/>
			<path fill="none" stroke="#FFFFFF" stroke-width="3" stroke-miterlimit="10" d="M263.854,122.324
				c0-0.839,0.161-1.586,0.484-2.242c0.323-0.656,0.788-1.164,1.395-1.523c0.606-0.359,1.311-0.539,2.113-0.539
				c1.141,0,2.071,0.349,2.793,1.047c0.721,0.698,1.124,1.646,1.207,2.844l0.016,0.578c0,1.297-0.362,2.337-1.086,3.121
				c-0.724,0.784-1.695,1.176-2.914,1.176s-2.191-0.391-2.918-1.172s-1.09-1.844-1.09-3.188V122.324z M266.111,122.484
				c0,0.804,0.151,1.418,0.453,1.843c0.302,0.425,0.734,0.638,1.297,0.638c0.547,0,0.974-0.21,1.281-0.63
				c0.307-0.42,0.461-1.092,0.461-2.015c0-0.788-0.154-1.398-0.461-1.831c-0.308-0.433-0.74-0.649-1.297-0.649
				c-0.552,0-0.979,0.215-1.281,0.646C266.262,120.916,266.111,121.582,266.111,122.484z"/>
			<path fill="none" stroke="#FFFFFF" stroke-width="3" stroke-miterlimit="10" d="M275.33,118.176l0.07,0.977
				c0.604-0.755,1.414-1.133,2.43-1.133c0.896,0,1.562,0.263,2,0.789s0.661,1.312,0.672,2.359v5.461h-2.258v-5.406
				c0-0.479-0.104-0.827-0.312-1.043c-0.208-0.216-0.555-0.324-1.039-0.324c-0.636,0-1.112,0.271-1.43,0.812v5.961h-2.258v-8.453
				H275.33z"/>
			<path fill="none" stroke="#FFFFFF" stroke-width="3" stroke-miterlimit="10" d="M281.885,122.34c0-1.297,0.309-2.341,0.926-3.133
				s1.449-1.188,2.496-1.188c0.927,0,1.648,0.317,2.164,0.953l0.094-0.797h2.047v8.172c0,0.739-0.168,1.383-0.504,1.93
				s-0.809,0.964-1.418,1.25s-1.323,0.43-2.141,0.43c-0.62,0-1.224-0.124-1.812-0.371c-0.589-0.247-1.034-0.566-1.336-0.957l1-1.375
				c0.562,0.63,1.245,0.945,2.047,0.945c0.599,0,1.065-0.16,1.398-0.48c0.333-0.32,0.5-0.774,0.5-1.363v-0.453
				c-0.521,0.589-1.206,0.883-2.055,0.883c-1.016,0-1.837-0.397-2.465-1.191c-0.628-0.794-0.941-1.848-0.941-3.16V122.34z
				 M284.143,122.508c0,0.767,0.153,1.368,0.461,1.804c0.307,0.436,0.729,0.653,1.266,0.653c0.688,0,1.18-0.258,1.477-0.774v-3.561
				c-0.302-0.517-0.789-0.774-1.461-0.774c-0.542,0-0.968,0.222-1.277,0.665C284.297,120.964,284.143,121.627,284.143,122.508z"/>
		</g>
		<g>
			<path d="M249.388,124.607c0-0.276-0.137-0.493-0.41-0.652s-0.712-0.301-1.316-0.426c-2.011-0.422-3.016-1.276-3.016-2.562
				c0-0.75,0.311-1.376,0.934-1.879c0.622-0.503,1.436-0.754,2.441-0.754c1.073,0,1.931,0.253,2.574,0.758
				c0.643,0.505,0.965,1.161,0.965,1.969h-2.258c0-0.323-0.104-0.59-0.312-0.801c-0.208-0.211-0.534-0.316-0.977-0.316
				c-0.38,0-0.675,0.086-0.883,0.258c-0.208,0.172-0.312,0.391-0.312,0.656c0,0.25,0.118,0.452,0.355,0.605
				c0.237,0.153,0.637,0.286,1.199,0.398s1.036,0.238,1.422,0.379c1.192,0.438,1.789,1.195,1.789,2.273
				c0,0.771-0.331,1.395-0.992,1.871c-0.662,0.477-1.516,0.715-2.562,0.715c-0.708,0-1.337-0.126-1.887-0.379
				c-0.55-0.253-0.98-0.599-1.293-1.039s-0.469-0.915-0.469-1.426h2.141c0.021,0.401,0.169,0.708,0.445,0.922
				c0.276,0.214,0.646,0.32,1.109,0.32c0.432,0,0.759-0.082,0.98-0.246C249.277,125.088,249.388,124.873,249.388,124.607z"/>
			<path d="M255.739,116.412v2.078h1.445v1.656h-1.445v4.219c0,0.312,0.06,0.536,0.18,0.672c0.12,0.136,0.349,0.203,0.688,0.203
				c0.25,0,0.471-0.019,0.664-0.055v1.711c-0.443,0.136-0.898,0.203-1.367,0.203c-1.583,0-2.391-0.8-2.422-2.398v-4.555h-1.234
				v-1.656h1.234v-2.078H255.739z"/>
			<path d="M263.192,120.607c-0.308-0.042-0.578-0.062-0.812-0.062c-0.854,0-1.414,0.289-1.68,0.867v5.531h-2.258v-8.453h2.133
				l0.062,1.008c0.453-0.776,1.081-1.164,1.883-1.164c0.25,0,0.484,0.034,0.703,0.102L263.192,120.607z"/>
			<path d="M263.646,122.639c0-0.839,0.161-1.586,0.484-2.242c0.323-0.656,0.788-1.164,1.395-1.523
				c0.606-0.359,1.311-0.539,2.113-0.539c1.141,0,2.071,0.349,2.793,1.047c0.721,0.698,1.124,1.646,1.207,2.844l0.016,0.578
				c0,1.297-0.362,2.337-1.086,3.121c-0.724,0.784-1.695,1.176-2.914,1.176s-2.191-0.391-2.918-1.172s-1.09-1.844-1.09-3.188
				V122.639z M265.903,122.799c0,0.804,0.151,1.418,0.453,1.843c0.302,0.425,0.734,0.638,1.297,0.638c0.547,0,0.974-0.21,1.281-0.63
				c0.307-0.42,0.461-1.092,0.461-2.015c0-0.788-0.154-1.398-0.461-1.831c-0.308-0.433-0.74-0.649-1.297-0.649
				c-0.552,0-0.979,0.215-1.281,0.646C266.054,121.23,265.903,121.896,265.903,122.799z"/>
			<path d="M275.122,118.49l0.07,0.977c0.604-0.755,1.414-1.133,2.43-1.133c0.896,0,1.562,0.263,2,0.789s0.661,1.312,0.672,2.359
				v5.461h-2.258v-5.406c0-0.479-0.104-0.827-0.312-1.043c-0.208-0.216-0.555-0.324-1.039-0.324c-0.636,0-1.112,0.271-1.43,0.812
				v5.961h-2.258v-8.453H275.122z"/>
			<path d="M281.677,122.654c0-1.297,0.309-2.341,0.926-3.133s1.449-1.188,2.496-1.188c0.927,0,1.648,0.317,2.164,0.953l0.094-0.797
				h2.047v8.172c0,0.739-0.168,1.383-0.504,1.93s-0.809,0.964-1.418,1.25s-1.323,0.43-2.141,0.43c-0.62,0-1.224-0.124-1.812-0.371
				c-0.589-0.247-1.034-0.566-1.336-0.957l1-1.375c0.562,0.63,1.245,0.945,2.047,0.945c0.599,0,1.065-0.16,1.398-0.48
				c0.333-0.32,0.5-0.774,0.5-1.363v-0.453c-0.521,0.589-1.206,0.883-2.055,0.883c-1.016,0-1.837-0.397-2.465-1.191
				c-0.628-0.794-0.941-1.848-0.941-3.16V122.654z M283.935,122.822c0,0.767,0.153,1.368,0.461,1.804
				c0.307,0.436,0.729,0.653,1.266,0.653c0.688,0,1.18-0.258,1.477-0.774v-3.561c-0.302-0.517-0.789-0.774-1.461-0.774
				c-0.542,0-0.968,0.222-1.277,0.665C284.089,121.278,283.935,121.941,283.935,122.822z"/>
		</g>
	</g>
	<g id="govt_x5F_arrow_00000090973547014725421310000017409835780019534755_">
		
			<line fill="none" stroke="#000000" stroke-width="0.75" stroke-miterlimit="10" x1="192.212" y1="296.076" x2="192.212" y2="313.543"/>
		<g>
			<polygon points="189.145,311.058 189.694,310.546 192.212,313.255 194.73,310.546 195.279,311.058 192.212,314.356 			"/>
		</g>
	</g>
	
		<polyline id="govt_x5F_line_00000163030441344529286770000014151415243034408869_" fill="none" stroke="#000000" stroke-width="0.75" stroke-miterlimit="10" points="
		157.272,268.315 157.272,296.076 227.152,296.076 227.152,235.394 	"/>
	<g id="govt_x5F_text_00000098222495228793492300000006553839927246638977_">
		<g>
			<path fill="none" stroke="#FFFFFF" stroke-width="3" stroke-miterlimit="10" d="M145.483,326.111
				c0-1.297,0.309-2.341,0.926-3.133c0.617-0.792,1.449-1.188,2.496-1.188c0.927,0,1.648,0.318,2.164,0.953l0.094-0.797h2.047v8.172
				c0,0.739-0.168,1.383-0.504,1.93s-0.809,0.963-1.418,1.25c-0.609,0.286-1.323,0.43-2.141,0.43c-0.62,0-1.224-0.124-1.812-0.371
				c-0.589-0.248-1.034-0.566-1.336-0.957l1-1.375c0.562,0.63,1.245,0.945,2.047,0.945c0.599,0,1.065-0.16,1.398-0.48
				s0.5-0.775,0.5-1.363v-0.453c-0.521,0.589-1.206,0.883-2.055,0.883c-1.016,0-1.837-0.397-2.465-1.191
				c-0.628-0.794-0.941-1.848-0.941-3.16V326.111z M147.741,326.279c0,0.767,0.153,1.368,0.461,1.804s0.729,0.653,1.266,0.653
				c0.688,0,1.18-0.258,1.477-0.774v-3.561c-0.302-0.516-0.789-0.774-1.461-0.774c-0.542,0-0.968,0.222-1.277,0.665
				S147.741,325.397,147.741,326.279z"/>
			<path fill="none" stroke="#FFFFFF" stroke-width="3" stroke-miterlimit="10" d="M154.593,326.095
				c0-0.838,0.161-1.586,0.484-2.242s0.788-1.164,1.395-1.523s1.312-0.539,2.113-0.539c1.141,0,2.071,0.349,2.793,1.047
				c0.722,0.698,1.124,1.646,1.207,2.844l0.016,0.578c0,1.297-0.362,2.337-1.086,3.121c-0.724,0.784-1.695,1.176-2.914,1.176
				s-2.191-0.391-2.918-1.172s-1.09-1.844-1.09-3.188V326.095z M156.851,326.255c0,0.804,0.151,1.418,0.453,1.843
				c0.302,0.425,0.734,0.638,1.297,0.638c0.547,0,0.974-0.21,1.281-0.63s0.461-1.091,0.461-2.015c0-0.788-0.153-1.398-0.461-1.831
				c-0.308-0.433-0.739-0.649-1.297-0.649c-0.552,0-0.979,0.215-1.281,0.646C157.002,324.687,156.851,325.353,156.851,326.255z"/>
			<path fill="none" stroke="#FFFFFF" stroke-width="3" stroke-miterlimit="10" d="M167.038,327.642l1.57-5.695h2.359l-2.852,8.453
				h-2.156l-2.852-8.453h2.359L167.038,327.642z"/>
			<path fill="none" stroke="#FFFFFF" stroke-width="3" stroke-miterlimit="10" d="M175.851,330.556
				c-1.239,0-2.249-0.38-3.027-1.141c-0.778-0.76-1.168-1.773-1.168-3.039v-0.219c0-0.849,0.164-1.608,0.492-2.277
				c0.328-0.669,0.793-1.185,1.395-1.547c0.602-0.362,1.288-0.543,2.059-0.543c1.156,0,2.066,0.365,2.73,1.094
				c0.664,0.729,0.996,1.763,0.996,3.102v0.922h-5.383c0.073,0.552,0.293,0.995,0.66,1.328c0.367,0.333,0.832,0.5,1.395,0.5
				c0.87,0,1.55-0.315,2.039-0.945l1.109,1.242c-0.339,0.479-0.797,0.853-1.375,1.121S176.554,330.556,175.851,330.556z
				 M175.593,323.611c-0.448,0-0.812,0.152-1.09,0.455c-0.278,0.304-0.457,0.738-0.535,1.303h3.141v-0.181
				c-0.011-0.502-0.146-0.891-0.406-1.165C176.441,323.748,176.072,323.611,175.593,323.611z"/>
			<path fill="none" stroke="#FFFFFF" stroke-width="3" stroke-miterlimit="10" d="M185.358,324.064
				c-0.308-0.042-0.578-0.062-0.812-0.062c-0.854,0-1.414,0.289-1.68,0.867v5.531h-2.258v-8.453h2.133l0.062,1.008
				c0.453-0.776,1.081-1.164,1.883-1.164c0.25,0,0.484,0.034,0.703,0.102L185.358,324.064z"/>
			<path fill="none" stroke="#FFFFFF" stroke-width="3" stroke-miterlimit="10" d="M188.522,321.947l0.07,0.977
				c0.604-0.755,1.414-1.133,2.43-1.133c0.896,0,1.562,0.263,2,0.789c0.438,0.526,0.661,1.312,0.672,2.359v5.461h-2.258v-5.406
				c0-0.479-0.104-0.827-0.312-1.043c-0.208-0.216-0.555-0.324-1.039-0.324c-0.636,0-1.112,0.271-1.43,0.812v5.961h-2.258v-8.453
				H188.522z"/>
			<path fill="none" stroke="#FFFFFF" stroke-width="3" stroke-miterlimit="10" d="M197.522,321.947l0.07,0.945
				c0.599-0.734,1.409-1.102,2.43-1.102c1.089,0,1.836,0.43,2.242,1.289c0.594-0.859,1.44-1.289,2.539-1.289
				c0.917,0,1.599,0.267,2.047,0.801c0.448,0.534,0.672,1.337,0.672,2.41v5.398h-2.266v-5.391c0-0.479-0.094-0.829-0.281-1.051
				c-0.188-0.221-0.519-0.332-0.992-0.332c-0.677,0-1.146,0.323-1.406,0.969l0.008,5.805h-2.258v-5.383
				c0-0.489-0.097-0.844-0.289-1.062s-0.521-0.328-0.984-0.328c-0.641,0-1.104,0.266-1.391,0.797v5.977h-2.258v-8.453H197.522z"/>
			<path fill="none" stroke="#FFFFFF" stroke-width="3" stroke-miterlimit="10" d="M213.147,330.556
				c-1.239,0-2.249-0.38-3.027-1.141c-0.778-0.76-1.168-1.773-1.168-3.039v-0.219c0-0.849,0.164-1.608,0.492-2.277
				c0.328-0.669,0.793-1.185,1.395-1.547c0.602-0.362,1.288-0.543,2.059-0.543c1.156,0,2.066,0.365,2.73,1.094
				c0.664,0.729,0.996,1.763,0.996,3.102v0.922h-5.383c0.073,0.552,0.293,0.995,0.66,1.328c0.367,0.333,0.832,0.5,1.395,0.5
				c0.87,0,1.55-0.315,2.039-0.945l1.109,1.242c-0.339,0.479-0.797,0.853-1.375,1.121S213.851,330.556,213.147,330.556z
				 M212.89,323.611c-0.448,0-0.812,0.152-1.09,0.455c-0.278,0.304-0.457,0.738-0.535,1.303h3.141v-0.181
				c-0.011-0.502-0.146-0.891-0.406-1.165C213.738,323.748,213.369,323.611,212.89,323.611z"/>
			<path fill="none" stroke="#FFFFFF" stroke-width="3" stroke-miterlimit="10" d="M219.983,321.947l0.07,0.977
				c0.604-0.755,1.414-1.133,2.43-1.133c0.896,0,1.562,0.263,2,0.789c0.438,0.526,0.661,1.312,0.672,2.359v5.461h-2.258v-5.406
				c0-0.479-0.104-0.827-0.312-1.043c-0.208-0.216-0.555-0.324-1.039-0.324c-0.636,0-1.112,0.271-1.43,0.812v5.961h-2.258v-8.453
				H219.983z"/>
			<path fill="none" stroke="#FFFFFF" stroke-width="3" stroke-miterlimit="10" d="M229.569,319.869v2.078h1.445v1.656h-1.445v4.219
				c0,0.312,0.06,0.537,0.18,0.672c0.12,0.136,0.349,0.203,0.688,0.203c0.25,0,0.472-0.018,0.664-0.055v1.711
				c-0.442,0.135-0.898,0.203-1.367,0.203c-1.583,0-2.391-0.799-2.422-2.398v-4.555h-1.234v-1.656h1.234v-2.078H229.569z"/>
		</g>
		<g>
			<path d="M145.705,325.941c0-1.297,0.309-2.341,0.926-3.133c0.617-0.792,1.449-1.188,2.496-1.188c0.927,0,1.648,0.318,2.164,0.953
				l0.094-0.797h2.047v8.172c0,0.739-0.168,1.383-0.504,1.93s-0.809,0.963-1.418,1.25c-0.609,0.286-1.323,0.43-2.141,0.43
				c-0.62,0-1.224-0.124-1.812-0.371c-0.589-0.248-1.034-0.566-1.336-0.957l1-1.375c0.562,0.63,1.245,0.945,2.047,0.945
				c0.599,0,1.065-0.16,1.398-0.48s0.5-0.775,0.5-1.363v-0.453c-0.521,0.589-1.206,0.883-2.055,0.883
				c-1.016,0-1.837-0.397-2.465-1.191c-0.628-0.794-0.941-1.848-0.941-3.16V325.941z M147.963,326.109
				c0,0.767,0.153,1.368,0.461,1.804s0.729,0.653,1.266,0.653c0.688,0,1.18-0.258,1.477-0.774v-3.561
				c-0.302-0.516-0.789-0.774-1.461-0.774c-0.542,0-0.968,0.222-1.277,0.665S147.963,325.228,147.963,326.109z"/>
			<path d="M154.814,325.926c0-0.838,0.161-1.586,0.484-2.242s0.788-1.164,1.395-1.523s1.312-0.539,2.113-0.539
				c1.141,0,2.071,0.349,2.793,1.047c0.722,0.698,1.124,1.646,1.207,2.844l0.016,0.578c0,1.297-0.362,2.337-1.086,3.121
				c-0.724,0.784-1.695,1.176-2.914,1.176s-2.191-0.391-2.918-1.172s-1.09-1.844-1.09-3.188V325.926z M157.072,326.086
				c0,0.804,0.151,1.418,0.453,1.843c0.302,0.425,0.734,0.638,1.297,0.638c0.547,0,0.974-0.21,1.281-0.63s0.461-1.091,0.461-2.015
				c0-0.788-0.153-1.398-0.461-1.831c-0.308-0.433-0.739-0.649-1.297-0.649c-0.552,0-0.979,0.215-1.281,0.646
				C157.224,324.518,157.072,325.184,157.072,326.086z"/>
			<path d="M167.26,327.473l1.57-5.695h2.359l-2.852,8.453h-2.156l-2.852-8.453h2.359L167.26,327.473z"/>
			<path d="M176.072,330.387c-1.239,0-2.249-0.38-3.027-1.141c-0.778-0.76-1.168-1.773-1.168-3.039v-0.219
				c0-0.849,0.164-1.608,0.492-2.277c0.328-0.669,0.793-1.185,1.395-1.547c0.602-0.362,1.288-0.543,2.059-0.543
				c1.156,0,2.066,0.365,2.73,1.094c0.664,0.729,0.996,1.763,0.996,3.102v0.922h-5.383c0.073,0.552,0.293,0.995,0.66,1.328
				c0.367,0.333,0.832,0.5,1.395,0.5c0.87,0,1.55-0.315,2.039-0.945l1.109,1.242c-0.339,0.479-0.797,0.853-1.375,1.121
				S176.775,330.387,176.072,330.387z M175.814,323.441c-0.448,0-0.812,0.152-1.09,0.455c-0.278,0.304-0.457,0.738-0.535,1.303
				h3.141v-0.181c-0.011-0.502-0.146-0.891-0.406-1.165C176.663,323.579,176.294,323.441,175.814,323.441z"/>
			<path d="M185.58,323.895c-0.308-0.042-0.578-0.062-0.812-0.062c-0.854,0-1.414,0.289-1.68,0.867v5.531h-2.258v-8.453h2.133
				l0.062,1.008c0.453-0.776,1.081-1.164,1.883-1.164c0.25,0,0.484,0.034,0.703,0.102L185.58,323.895z"/>
			<path d="M188.744,321.777l0.07,0.977c0.604-0.755,1.414-1.133,2.43-1.133c0.896,0,1.562,0.263,2,0.789
				c0.438,0.526,0.661,1.312,0.672,2.359v5.461h-2.258v-5.406c0-0.479-0.104-0.827-0.312-1.043
				c-0.208-0.216-0.555-0.324-1.039-0.324c-0.636,0-1.112,0.271-1.43,0.812v5.961h-2.258v-8.453H188.744z"/>
			<path d="M197.744,321.777l0.07,0.945c0.599-0.734,1.409-1.102,2.43-1.102c1.089,0,1.836,0.43,2.242,1.289
				c0.594-0.859,1.44-1.289,2.539-1.289c0.917,0,1.599,0.267,2.047,0.801c0.448,0.534,0.672,1.337,0.672,2.41v5.398h-2.266v-5.391
				c0-0.479-0.094-0.829-0.281-1.051c-0.188-0.221-0.519-0.332-0.992-0.332c-0.677,0-1.146,0.323-1.406,0.969l0.008,5.805h-2.258
				v-5.383c0-0.489-0.097-0.844-0.289-1.062s-0.521-0.328-0.984-0.328c-0.641,0-1.104,0.266-1.391,0.797v5.977h-2.258v-8.453
				H197.744z"/>
			<path d="M213.369,330.387c-1.239,0-2.249-0.38-3.027-1.141c-0.778-0.76-1.168-1.773-1.168-3.039v-0.219
				c0-0.849,0.164-1.608,0.492-2.277c0.328-0.669,0.793-1.185,1.395-1.547c0.602-0.362,1.288-0.543,2.059-0.543
				c1.156,0,2.066,0.365,2.73,1.094c0.664,0.729,0.996,1.763,0.996,3.102v0.922h-5.383c0.073,0.552,0.293,0.995,0.66,1.328
				c0.367,0.333,0.832,0.5,1.395,0.5c0.87,0,1.55-0.315,2.039-0.945l1.109,1.242c-0.339,0.479-0.797,0.853-1.375,1.121
				S214.072,330.387,213.369,330.387z M213.111,323.441c-0.448,0-0.812,0.152-1.09,0.455c-0.278,0.304-0.457,0.738-0.535,1.303
				h3.141v-0.181c-0.011-0.502-0.146-0.891-0.406-1.165C213.96,323.579,213.591,323.441,213.111,323.441z"/>
			<path d="M220.205,321.777l0.07,0.977c0.604-0.755,1.414-1.133,2.43-1.133c0.896,0,1.562,0.263,2,0.789
				c0.438,0.526,0.661,1.312,0.672,2.359v5.461h-2.258v-5.406c0-0.479-0.104-0.827-0.312-1.043
				c-0.208-0.216-0.555-0.324-1.039-0.324c-0.636,0-1.112,0.271-1.43,0.812v5.961h-2.258v-8.453H220.205z"/>
			<path d="M229.791,319.699v2.078h1.445v1.656h-1.445v4.219c0,0.312,0.06,0.537,0.18,0.672c0.12,0.136,0.349,0.203,0.688,0.203
				c0.25,0,0.472-0.018,0.664-0.055v1.711c-0.442,0.135-0.898,0.203-1.367,0.203c-1.583,0-2.391-0.799-2.422-2.398v-4.555h-1.234
				v-1.656h1.234v-2.078H229.791z"/>
		</g>
	</g>
</g>
<style>
#g-mobile_scroller-Artboard_1-_svg_inline-img rect, #g-mobile_scroller-Artboard_1-_svg_inline-img circle, #g-mobile_scroller-Artboard_1-_svg_inline-img path, #g-mobile_scroller-Artboard_1-_svg_inline-img line, #g-mobile_scroller-Artboard_1-_svg_inline-img polyline, #g-mobile_scroller-Artboard_1-_svg_inline-img polygon { vector-effect: non-scaling-stroke; }
</style>
</svg>

